<svg xmlns="http://www.w3.org/2000/svg" viewBox="0 0 32 32" width="32" height="32">
  <defs>
    <linearGradient id="lg" x1="0%" y1="0%" x2="100%" y2="100%">
      <stop offset="0%" style="stop-color:#ff9b44"/>
      <stop offset="100%" style="stop-color:#fd7e14"/>
    </linearGradient>
  </defs>
  <rect width="32" height="32" rx="8" fill="url(#lg)"/>
  <!-- Shopping bag icon (matches Larkon sidebar logo) -->
  <path d="M22 13h-2.5a3.5 3.5 0 0 0-7 0H10a1 1 0 0 0-1 1l-1 10a1 1 0 0 0 1 1h14a1 1 0 0 0 1-1l-1-10a1 1 0 0 0-1-1zm-6-2a2 2 0 0 1 2 2h-4a2 2 0 0 1 2-2zm0 8a2 2 0 1 1 0-4 2 2 0 0 1 0 4z" fill="#fff"/>
</svg>
